<svg id="Layer_1" data-name="Layer 1" xmlns="http://www.w3.org/2000/svg" viewBox="0 0 33 33"><path d="M16.5,12.59a3.91,3.91,0,1,0,3.9,3.91A3.92,3.92,0,0,0,16.5,12.59ZM28.21,16.5c0-1.62,0-3.22-.08-4.83a6.91,6.91,0,0,0-1.89-4.91,6.91,6.91,0,0,0-4.91-1.89c-1.61-.09-3.22-.08-4.83-.08s-3.22,0-4.83.08A6.91,6.91,0,0,0,6.76,6.76a6.91,6.91,0,0,0-1.89,4.91c-.09,1.61-.08,3.22-.08,4.83s0,3.22.08,4.83a6.91,6.91,0,0,0,1.89,4.91,6.91,6.91,0,0,0,4.91,1.89c1.61.09,3.22.08,4.83.08s3.22,0,4.83-.08a6.91,6.91,0,0,0,4.91-1.89,6.91,6.91,0,0,0,1.89-4.91C28.23,19.72,28.21,18.12,28.21,16.5Zm-11.71,6a6,6,0,1,1,6-6A6,6,0,0,1,16.5,22.51Zm6.25-10.86a1.42,1.42,0,1,1,1.3-.87,1.44,1.44,0,0,1-.31.46,1.37,1.37,0,0,1-.45.3A1.41,1.41,0,0,1,22.75,11.65Z"/></svg>