<svg id="Layer_1" data-name="Layer 1" xmlns="http://www.w3.org/2000/svg" viewBox="0 0 33 33"><path d="M17,4.52c1.31,0,2.61,0,3.91,0a6.23,6.23,0,0,0,1.75,4.17,7.05,7.05,0,0,0,4.24,1.79v4a10.7,10.7,0,0,1-4.2-1,12.36,12.36,0,0,1-1.62-.93c0,2.92,0,5.84,0,8.75a7.64,7.64,0,0,1-1.35,3.94,7.45,7.45,0,0,1-5.91,3.21,7.29,7.29,0,0,1-4.08-1A7.54,7.54,0,0,1,6.1,21.75c0-.5,0-1,0-1.49a7.53,7.53,0,0,1,8.73-6.68c0,1.48,0,3,0,4.44a3.43,3.43,0,0,0-4.38,2.12,4,4,0,0,0-.14,1.61,3.4,3.4,0,0,0,3.5,2.87A3.36,3.36,0,0,0,16.53,23,2.31,2.31,0,0,0,16.94,22c.1-1.79.06-3.57.07-5.36C17,12.56,17,8.54,17,4.52Z"/></svg>