<svg id="Layer_1" data-name="Layer 1" xmlns="http://www.w3.org/2000/svg" viewBox="0 0 33 33"><path d="M20,5H13C6.53,5,5,6.53,5,13V20c0,6.44,1.53,8,8,8H20c6.44,0,8-1.53,8-8V13C28,6.53,26.46,5,20,5Zm3.54,16.41H21.9c-.63,0-.83-.5-2-1.66-1-1-1.42-1.08-1.67-1.08s-.44.09-.44.57v1.51c0,.4-.13.64-1.2.64a6.52,6.52,0,0,1-5.11-3.06c-2.08-2.93-2.65-5.12-2.65-5.57,0-.24.1-.47.57-.47H11.1c.42,0,.59.19.75.65.83,2.38,2.21,4.48,2.77,4.48.21,0,.31-.1.31-.64V14.32c-.06-1.14-.66-1.24-.66-1.64a.4.4,0,0,1,.42-.39h2.63c.35,0,.48.19.48.61v3.33c0,.36.17.49.26.49s.39-.13.78-.52a14.3,14.3,0,0,0,2.06-3.43.75.75,0,0,1,.73-.47h1.68c.5,0,.61.26.5.62a21.11,21.11,0,0,1-2.26,3.86c-.17.3-.24.42,0,.75s.77.75,1.15,1.2a7.24,7.24,0,0,1,1.42,2c.16.47-.08.72-.55.72Z"/></svg>