<svg width="29" height="21" viewBox="0 0 29 21" fill="none" xmlns="http://www.w3.org/2000/svg">
<rect x="9" y="6" width="11" height="10" fill="white"/>
<path d="M27.6902 3.90409C27.374 2.72434 26.4458 1.79346 25.2675 1.47584C23.1142 0.884589 14.4998 0.874965 14.4998 0.874965C14.4998 0.874965 5.88684 0.865339 3.73222 1.43046C2.57722 1.74534 1.62297 2.69684 1.30397 3.87522C0.736093 6.02846 0.730593 10.4945 0.730593 10.4945C0.730593 10.4945 0.725093 14.9825 1.28884 17.1137C1.60509 18.2921 2.53322 19.223 3.71297 19.5406C5.88822 20.1318 14.4792 20.1415 14.4792 20.1415C14.4792 20.1415 23.0936 20.1511 25.2468 19.5873C26.4238 19.2711 27.3561 18.3416 27.6765 17.1632C28.2457 15.0113 28.2498 10.5467 28.2498 10.5467C28.2498 10.5467 28.2773 6.05734 27.6902 3.90409ZM11.7443 14.6318L11.7512 6.38184L18.9108 10.5137L11.7443 14.6318Z" fill="#D03A2C"/>
</svg>
