<svg width="169" height="47" viewBox="0 0 169 47" fill="none" xmlns="http://www.w3.org/2000/svg">
<rect width="168.999" height="46.0521" rx="23.026" fill="#100916"/>
<path fill-rule="evenodd" clip-rule="evenodd" d="M21.7052 10.0002L22.007 13.3859C20.4103 13.8121 16.1932 15.2364 16.0938 20.7784L16.0903 33.0361L13.9162 32.1355L10 22.681L13.9162 13.2265L21.7052 10.0002Z" fill="#FF4343"/>
<path fill-rule="evenodd" clip-rule="evenodd" d="M25.0326 10L24.7308 13.3857C26.3275 13.8118 30.5446 15.2362 30.644 20.7782L30.6475 33.0359L32.8216 32.1353L36.7378 22.6808L32.8216 13.2263L25.0326 10Z" fill="#FF4343"/>
<path fill-rule="evenodd" clip-rule="evenodd" d="M23.3693 36.0521V36.052L20.3814 34.8061L20.3797 25.2894L17.7555 24.1992L17.76 21.7837L22.6149 23.7898L22.6129 33.525L23.3694 33.8442L24.1259 33.525L24.1239 23.7898L28.9788 21.7837L28.9833 24.1992L26.3591 25.2894L26.3574 34.8061L23.3695 36.052V36.0521H23.3694H23.3693Z" fill="#FF4343"/>
<path fill-rule="evenodd" clip-rule="evenodd" d="M40.5501 14.119V31.9352H48.2111C51.3162 31.9352 55.2102 30.9934 55.2102 26.9466C55.2102 24.3251 53.5559 23.0271 51.7998 22.518C53.3778 21.9835 54.4976 20.7109 54.4976 18.6238C54.4976 15.5696 52.1307 14.119 48.3383 14.119H40.5501ZM51.3947 26.5389C51.3947 28.4732 49.8676 28.8296 48.1624 28.8296H44.3445V24.2483H48.3659C49.893 24.2483 51.3947 24.6555 51.3947 26.5389ZM50.7058 19.2854C50.7058 20.6597 49.6623 21.3216 48.2116 21.3216H44.3683V17.2492H48.0079C49.6878 17.2492 50.7058 17.8855 50.7058 19.2854ZM61.8283 31.9352V25.6994H64.628L69.4383 31.9352H73.8414L68.522 25.2159C70.6854 24.5286 72.4162 22.9761 72.4162 19.922C72.4162 15.417 68.802 14.119 65.3406 14.119H58.0105V31.9352H61.8283ZM61.8317 17.4786H65.5222C67.1256 17.4786 68.5254 18.1658 68.5254 19.9983C68.5254 21.8053 67.1256 22.518 65.5222 22.518H61.8317V17.4786ZM75.9832 14.119V31.9352H79.8009V14.119H75.9832ZM82.6472 23.0261C82.6472 29.5673 87.4576 32.2905 92.4462 32.2905C94.4313 32.2905 96.4675 31.8579 98.2492 31.0944V22.2626H94.6096V28.6254C94.075 28.8291 93.4133 28.9563 92.6497 28.9563C90.0282 28.9563 86.5414 27.7602 86.5414 23.0261C86.5414 18.852 89.6719 17.1722 92.8534 17.1722C94.6604 17.1722 96.4675 17.6558 97.8164 18.5466V14.907C96.1621 14.1688 94.2531 13.7616 92.3444 13.7616C87.4576 13.7616 82.6472 16.5613 82.6472 23.0261Z" fill="#FF4343"/>
<path fill-rule="evenodd" clip-rule="evenodd" d="M117.212 14.1174L111.129 23.3817L105.021 14.1174H101.483V31.9335H105.301V20.9383L110.009 28.1158H112.224L116.932 20.9639V31.9335H120.75V14.1174H117.212ZM126.679 31.932L128.002 28.5978H136.147L137.445 31.932H141.39L134.136 14.1159H130.013L122.734 31.932H126.679ZM131.667 19.0525C131.82 18.6962 131.947 18.3399 132.074 17.6526C132.201 18.3399 132.328 18.6962 132.456 19.0525L134.95 25.4408H129.198L131.667 19.0525ZM147.19 31.932V22.7439C147.19 21.9295 147.164 21.0387 147.113 20.3005L155.41 31.932H158.999V14.1159H155.181V23.3039C155.181 24.1182 155.207 25.0092 155.258 25.7472L146.96 14.1159H143.372V31.932H147.19Z" fill="white"/>
</svg>
